<mxfile host="app.diagrams.net" modified="2023-11-05T08:46:08.395Z" agent="Mozilla/5.0 (Windows NT 10.0; Win64; x64) AppleWebKit/537.36 (KHTML, like Gecko) Chrome/115.0.0.0 Safari/537.36" etag="eNAXn1kWsratogVmbsxf" version="22.0.8" type="github">
  <diagram name="Page-1" id="cN2y8amVZcgjIGidKNzW">
    <mxGraphModel dx="1900" dy="1725" grid="1" gridSize="10" guides="1" tooltips="1" connect="1" arrows="1" fold="1" page="1" pageScale="1" pageWidth="850" pageHeight="1100" math="0" shadow="0">
      <root>
        <mxCell id="0" />
        <mxCell id="1" parent="0" />
        <mxCell id="QwdAHC_jwGnzuMrW2I-O-1" value="" style="rounded=0;whiteSpace=wrap;html=1;dashed=1;dashPattern=8 8;strokeWidth=2;opacity=50;" vertex="1" parent="1">
          <mxGeometry x="-520" y="290" width="1522" height="700" as="geometry" />
        </mxCell>
        <mxCell id="QwdAHC_jwGnzuMrW2I-O-2" value="" style="rounded=0;whiteSpace=wrap;html=1;dashed=1;dashPattern=8 8;strokeWidth=2;opacity=50;" vertex="1" parent="1">
          <mxGeometry x="172" y="-34" width="770" height="254" as="geometry" />
        </mxCell>
        <mxCell id="QwdAHC_jwGnzuMrW2I-O-3" value="&lt;b style=&quot;font-size: 12px;&quot;&gt;&lt;font style=&quot;font-size: 12px;&quot;&gt;记录额外信息&lt;/font&gt;&lt;/b&gt;" style="rounded=0;whiteSpace=wrap;html=1;strokeWidth=2;fontFamily=Comic Sans MS;fontSize=12;" vertex="1" parent="1">
          <mxGeometry x="192" y="149" width="120" height="40" as="geometry" />
        </mxCell>
        <mxCell id="QwdAHC_jwGnzuMrW2I-O-4" value="&lt;b style=&quot;font-size: 12px;&quot;&gt;&lt;font style=&quot;font-size: 12px;&quot;&gt;row_id&lt;/font&gt;&lt;/b&gt;" style="rounded=0;whiteSpace=wrap;html=1;strokeWidth=2;fontFamily=Comic Sans MS;fontSize=12;dashed=1;" vertex="1" parent="1">
          <mxGeometry x="312" y="149" width="120" height="40" as="geometry" />
        </mxCell>
        <mxCell id="QwdAHC_jwGnzuMrW2I-O-5" style="edgeStyle=orthogonalEdgeStyle;rounded=0;orthogonalLoop=1;jettySize=auto;html=1;exitX=0.5;exitY=1;exitDx=0;exitDy=0;entryX=0.5;entryY=0;entryDx=0;entryDy=0;curved=1;fillColor=#dae8fc;strokeColor=#6c8ebf;strokeWidth=2;" edge="1" parent="1" source="QwdAHC_jwGnzuMrW2I-O-7" target="QwdAHC_jwGnzuMrW2I-O-9">
          <mxGeometry relative="1" as="geometry" />
        </mxCell>
        <mxCell id="QwdAHC_jwGnzuMrW2I-O-6" value="&lt;b style=&quot;font-size: 12px;&quot;&gt;&lt;font style=&quot;font-size: 12px;&quot;&gt;trx_id&lt;/font&gt;&lt;/b&gt;" style="rounded=0;whiteSpace=wrap;html=1;strokeWidth=2;fontFamily=Comic Sans MS;fontSize=12;" vertex="1" parent="1">
          <mxGeometry x="432" y="149" width="120" height="40" as="geometry" />
        </mxCell>
        <mxCell id="QwdAHC_jwGnzuMrW2I-O-7" value="&lt;b style=&quot;font-size: 12px;&quot;&gt;&lt;font style=&quot;font-size: 12px;&quot;&gt;roll_pointer&lt;/font&gt;&lt;/b&gt;" style="rounded=0;whiteSpace=wrap;html=1;strokeWidth=2;fontFamily=Comic Sans MS;fontSize=12;" vertex="1" parent="1">
          <mxGeometry x="552" y="149" width="120" height="40" as="geometry" />
        </mxCell>
        <mxCell id="QwdAHC_jwGnzuMrW2I-O-8" value="&lt;b style=&quot;font-size: 12px;&quot;&gt;&lt;font style=&quot;font-size: 12px;&quot;&gt;列信息&lt;/font&gt;&lt;/b&gt;" style="rounded=0;whiteSpace=wrap;html=1;strokeWidth=2;fontFamily=Comic Sans MS;fontSize=12;" vertex="1" parent="1">
          <mxGeometry x="672" y="149" width="120" height="40" as="geometry" />
        </mxCell>
        <mxCell id="QwdAHC_jwGnzuMrW2I-O-9" value="&lt;b style=&quot;font-size: 12px;&quot;&gt;&lt;font style=&quot;font-size: 12px;&quot;&gt;end of record&lt;/font&gt;&lt;/b&gt;" style="rounded=0;whiteSpace=wrap;html=1;strokeWidth=2;fontFamily=Comic Sans MS;fontSize=12;" vertex="1" parent="1">
          <mxGeometry x="232" y="320" width="120" height="40" as="geometry" />
        </mxCell>
        <mxCell id="QwdAHC_jwGnzuMrW2I-O-10" value="&lt;b style=&quot;font-size: 12px;&quot;&gt;&lt;font style=&quot;font-size: 12px;&quot;&gt;undo type&lt;br&gt;undo日志类型&lt;br&gt;&lt;/font&gt;&lt;/b&gt;" style="rounded=0;whiteSpace=wrap;html=1;strokeWidth=2;fontFamily=Comic Sans MS;fontSize=12;" vertex="1" parent="1">
          <mxGeometry x="232" y="360" width="120" height="40" as="geometry" />
        </mxCell>
        <mxCell id="QwdAHC_jwGnzuMrW2I-O-11" value="TRX_UNDO_INSERT_REC" style="text;html=1;strokeColor=none;fillColor=none;align=left;verticalAlign=middle;whiteSpace=wrap;rounded=0;fontStyle=2" vertex="1" parent="1">
          <mxGeometry x="362" y="370" width="150" height="30" as="geometry" />
        </mxCell>
        <mxCell id="QwdAHC_jwGnzuMrW2I-O-12" value="&lt;b style=&quot;font-size: 12px;&quot;&gt;&lt;font style=&quot;font-size: 12px;&quot;&gt;undo no&lt;br&gt;undo日志编号&lt;br&gt;&lt;/font&gt;&lt;/b&gt;" style="rounded=0;whiteSpace=wrap;html=1;strokeWidth=2;fontFamily=Comic Sans MS;fontSize=12;" vertex="1" parent="1">
          <mxGeometry x="232" y="400" width="120" height="40" as="geometry" />
        </mxCell>
        <mxCell id="QwdAHC_jwGnzuMrW2I-O-13" value="&lt;b style=&quot;font-size: 12px;&quot;&gt;&lt;font style=&quot;font-size: 12px;&quot;&gt;table id&lt;br&gt;对应记录的表id&lt;br&gt;&lt;/font&gt;&lt;/b&gt;" style="rounded=0;whiteSpace=wrap;html=1;strokeWidth=2;fontFamily=Comic Sans MS;fontSize=12;" vertex="1" parent="1">
          <mxGeometry x="232" y="440" width="120" height="40" as="geometry" />
        </mxCell>
        <mxCell id="QwdAHC_jwGnzuMrW2I-O-14" value="&lt;b style=&quot;font-size: 12px;&quot;&gt;&lt;font style=&quot;font-size: 12px;&quot;&gt;主键列信息&lt;br&gt;list&amp;lt;len,value&amp;gt;&lt;br&gt;&lt;/font&gt;&lt;/b&gt;" style="rounded=0;whiteSpace=wrap;html=1;strokeWidth=2;fontFamily=Comic Sans MS;fontSize=12;" vertex="1" parent="1">
          <mxGeometry x="232" y="480" width="120" height="60" as="geometry" />
        </mxCell>
        <mxCell id="QwdAHC_jwGnzuMrW2I-O-15" style="edgeStyle=orthogonalEdgeStyle;rounded=0;orthogonalLoop=1;jettySize=auto;html=1;exitX=0;exitY=0.5;exitDx=0;exitDy=0;entryX=0;entryY=0.5;entryDx=0;entryDy=0;curved=1;startArrow=classic;startFill=1;" edge="1" parent="1" source="QwdAHC_jwGnzuMrW2I-O-16" target="QwdAHC_jwGnzuMrW2I-O-9">
          <mxGeometry relative="1" as="geometry" />
        </mxCell>
        <mxCell id="QwdAHC_jwGnzuMrW2I-O-16" value="&lt;b style=&quot;font-size: 12px;&quot;&gt;&lt;font style=&quot;font-size: 12px;&quot;&gt;start of record&lt;/font&gt;&lt;/b&gt;" style="rounded=0;whiteSpace=wrap;html=1;strokeWidth=2;fontFamily=Comic Sans MS;fontSize=12;" vertex="1" parent="1">
          <mxGeometry x="232" y="540" width="120" height="40" as="geometry" />
        </mxCell>
        <mxCell id="QwdAHC_jwGnzuMrW2I-O-17" value="FIL_PAGE_INDEX" style="text;html=1;strokeColor=none;fillColor=none;align=center;verticalAlign=middle;whiteSpace=wrap;rounded=0;fontStyle=1;fontColor=#FF0000;" vertex="1" parent="1">
          <mxGeometry x="442" y="-64" width="120" height="30" as="geometry" />
        </mxCell>
        <mxCell id="QwdAHC_jwGnzuMrW2I-O-18" value="FIL_PAGE_UNDO_LOG" style="text;html=1;strokeColor=none;fillColor=none;align=center;verticalAlign=middle;whiteSpace=wrap;rounded=0;fontStyle=1;fontColor=#FF0000;" vertex="1" parent="1">
          <mxGeometry x="302" y="260" width="140" height="30" as="geometry" />
        </mxCell>
        <mxCell id="QwdAHC_jwGnzuMrW2I-O-19" value="&lt;b&gt;记录&lt;/b&gt;" style="rounded=0;whiteSpace=wrap;html=1;strokeWidth=2;fontFamily=Comic Sans MS;fontSize=12;" vertex="1" parent="1">
          <mxGeometry x="232" y="-20" width="120" height="40" as="geometry" />
        </mxCell>
        <mxCell id="QwdAHC_jwGnzuMrW2I-O-20" style="edgeStyle=orthogonalEdgeStyle;curved=1;rounded=0;orthogonalLoop=1;jettySize=auto;html=1;exitX=1;exitY=0.5;exitDx=0;exitDy=0;fontStyle=0;fillColor=#dae8fc;strokeColor=#6c8ebf;" edge="1" parent="1" source="QwdAHC_jwGnzuMrW2I-O-19" target="QwdAHC_jwGnzuMrW2I-O-23">
          <mxGeometry relative="1" as="geometry" />
        </mxCell>
        <mxCell id="QwdAHC_jwGnzuMrW2I-O-21" value="&lt;b&gt;next_record&lt;/b&gt;" style="edgeLabel;html=1;align=center;verticalAlign=middle;resizable=0;points=[];" vertex="1" connectable="0" parent="QwdAHC_jwGnzuMrW2I-O-20">
          <mxGeometry x="-0.386" y="-2" relative="1" as="geometry">
            <mxPoint as="offset" />
          </mxGeometry>
        </mxCell>
        <mxCell id="QwdAHC_jwGnzuMrW2I-O-22" value="&lt;b&gt;0&lt;/b&gt;" style="rounded=0;whiteSpace=wrap;html=1;strokeWidth=2;fontFamily=Comic Sans MS;fontSize=12;" vertex="1" parent="1">
          <mxGeometry x="192" y="-20" width="40" height="40" as="geometry" />
        </mxCell>
        <mxCell id="QwdAHC_jwGnzuMrW2I-O-23" value="&lt;b&gt;记录&lt;/b&gt;" style="rounded=0;whiteSpace=wrap;html=1;strokeWidth=2;fontFamily=Comic Sans MS;fontSize=12;" vertex="1" parent="1">
          <mxGeometry x="232" y="60" width="120" height="40" as="geometry" />
        </mxCell>
        <mxCell id="QwdAHC_jwGnzuMrW2I-O-24" value="&lt;b&gt;0&lt;/b&gt;" style="rounded=0;whiteSpace=wrap;html=1;strokeWidth=2;fontFamily=Comic Sans MS;fontSize=12;" vertex="1" parent="1">
          <mxGeometry x="192" y="60" width="40" height="40" as="geometry" />
        </mxCell>
        <mxCell id="QwdAHC_jwGnzuMrW2I-O-25" style="edgeStyle=orthogonalEdgeStyle;curved=1;rounded=0;orthogonalLoop=1;jettySize=auto;html=1;exitX=1;exitY=0.5;exitDx=0;exitDy=0;entryX=0.5;entryY=0;entryDx=0;entryDy=0;fillColor=#dae8fc;strokeColor=#6c8ebf;" edge="1" parent="1" source="QwdAHC_jwGnzuMrW2I-O-23" target="QwdAHC_jwGnzuMrW2I-O-3">
          <mxGeometry relative="1" as="geometry" />
        </mxCell>
        <mxCell id="QwdAHC_jwGnzuMrW2I-O-26" value="&lt;b&gt;next_record&lt;/b&gt;" style="edgeLabel;html=1;align=center;verticalAlign=middle;resizable=0;points=[];" vertex="1" connectable="0" parent="QwdAHC_jwGnzuMrW2I-O-25">
          <mxGeometry x="-0.1816" y="-3" relative="1" as="geometry">
            <mxPoint as="offset" />
          </mxGeometry>
        </mxCell>
        <mxCell id="QwdAHC_jwGnzuMrW2I-O-27" style="edgeStyle=orthogonalEdgeStyle;curved=1;rounded=0;orthogonalLoop=1;jettySize=auto;html=1;exitX=1;exitY=0.5;exitDx=0;exitDy=0;entryX=0;entryY=0.5;entryDx=0;entryDy=0;fillColor=#dae8fc;strokeColor=#6c8ebf;" edge="1" parent="1" source="QwdAHC_jwGnzuMrW2I-O-29" target="QwdAHC_jwGnzuMrW2I-O-33">
          <mxGeometry relative="1" as="geometry" />
        </mxCell>
        <mxCell id="QwdAHC_jwGnzuMrW2I-O-28" value="&lt;b&gt;PAGE_FREE&lt;/b&gt;" style="edgeLabel;html=1;align=center;verticalAlign=middle;resizable=0;points=[];" vertex="1" connectable="0" parent="QwdAHC_jwGnzuMrW2I-O-27">
          <mxGeometry x="0.1291" y="2" relative="1" as="geometry">
            <mxPoint as="offset" />
          </mxGeometry>
        </mxCell>
        <mxCell id="QwdAHC_jwGnzuMrW2I-O-29" value="&lt;b&gt;Page header&lt;/b&gt;" style="rounded=0;whiteSpace=wrap;html=1;strokeWidth=2;fontFamily=Comic Sans MS;fontSize=12;" vertex="1" parent="1">
          <mxGeometry x="472" y="-20" width="100" height="30" as="geometry" />
        </mxCell>
        <mxCell id="QwdAHC_jwGnzuMrW2I-O-30" style="edgeStyle=orthogonalEdgeStyle;curved=1;rounded=0;orthogonalLoop=1;jettySize=auto;html=1;exitX=0.5;exitY=1;exitDx=0;exitDy=0;fillColor=#dae8fc;strokeColor=#6c8ebf;" edge="1" parent="1" source="QwdAHC_jwGnzuMrW2I-O-32" target="QwdAHC_jwGnzuMrW2I-O-36">
          <mxGeometry relative="1" as="geometry" />
        </mxCell>
        <mxCell id="QwdAHC_jwGnzuMrW2I-O-31" value="&lt;b&gt;next_record&lt;/b&gt;" style="edgeLabel;html=1;align=center;verticalAlign=middle;resizable=0;points=[];" vertex="1" connectable="0" parent="QwdAHC_jwGnzuMrW2I-O-30">
          <mxGeometry x="-0.4514" y="-2" relative="1" as="geometry">
            <mxPoint as="offset" />
          </mxGeometry>
        </mxCell>
        <mxCell id="QwdAHC_jwGnzuMrW2I-O-32" value="&lt;b&gt;已删除记录&lt;/b&gt;" style="rounded=0;whiteSpace=wrap;html=1;strokeWidth=2;fontFamily=Comic Sans MS;fontSize=12;" vertex="1" parent="1">
          <mxGeometry x="765" y="-20" width="120" height="40" as="geometry" />
        </mxCell>
        <mxCell id="QwdAHC_jwGnzuMrW2I-O-33" value="&lt;b&gt;1&lt;/b&gt;" style="rounded=0;whiteSpace=wrap;html=1;strokeWidth=2;fontFamily=Comic Sans MS;fontSize=12;" vertex="1" parent="1">
          <mxGeometry x="725" y="-20" width="40" height="40" as="geometry" />
        </mxCell>
        <mxCell id="QwdAHC_jwGnzuMrW2I-O-34" style="edgeStyle=orthogonalEdgeStyle;curved=1;rounded=0;orthogonalLoop=1;jettySize=auto;html=1;exitX=0.5;exitY=1;exitDx=0;exitDy=0;entryX=0.5;entryY=0;entryDx=0;entryDy=0;strokeWidth=2;fillColor=#e51400;strokeColor=#B20000;" edge="1" parent="1" source="QwdAHC_jwGnzuMrW2I-O-7" target="QwdAHC_jwGnzuMrW2I-O-38">
          <mxGeometry relative="1" as="geometry" />
        </mxCell>
        <mxCell id="QwdAHC_jwGnzuMrW2I-O-35" value="&lt;font style=&quot;font-size: 13px;&quot;&gt;&lt;b&gt;执行删除操作&lt;/b&gt;&lt;/font&gt;" style="edgeLabel;html=1;align=center;verticalAlign=middle;resizable=0;points=[];" vertex="1" connectable="0" parent="QwdAHC_jwGnzuMrW2I-O-34">
          <mxGeometry x="0.0619" y="2" relative="1" as="geometry">
            <mxPoint as="offset" />
          </mxGeometry>
        </mxCell>
        <mxCell id="QwdAHC_jwGnzuMrW2I-O-36" value="&lt;b style=&quot;border-color: var(--border-color);&quot;&gt;已删除&lt;/b&gt;&lt;b&gt;记录&lt;/b&gt;" style="rounded=0;whiteSpace=wrap;html=1;strokeWidth=2;fontFamily=Comic Sans MS;fontSize=12;" vertex="1" parent="1">
          <mxGeometry x="765" y="62" width="120" height="40" as="geometry" />
        </mxCell>
        <mxCell id="QwdAHC_jwGnzuMrW2I-O-37" value="&lt;b&gt;1&lt;/b&gt;" style="rounded=0;whiteSpace=wrap;html=1;strokeWidth=2;fontFamily=Comic Sans MS;fontSize=12;" vertex="1" parent="1">
          <mxGeometry x="725" y="62" width="40" height="40" as="geometry" />
        </mxCell>
        <mxCell id="QwdAHC_jwGnzuMrW2I-O-38" value="&lt;b style=&quot;font-size: 12px;&quot;&gt;&lt;font style=&quot;font-size: 12px;&quot;&gt;end of record&lt;/font&gt;&lt;/b&gt;" style="rounded=0;whiteSpace=wrap;html=1;strokeWidth=2;fontFamily=Comic Sans MS;fontSize=12;" vertex="1" parent="1">
          <mxGeometry x="605" y="320" width="120" height="40" as="geometry" />
        </mxCell>
        <mxCell id="QwdAHC_jwGnzuMrW2I-O-39" value="&lt;b style=&quot;font-size: 12px;&quot;&gt;&lt;font style=&quot;font-size: 12px;&quot;&gt;undo type&lt;br&gt;undo日志类型&lt;br&gt;&lt;/font&gt;&lt;/b&gt;" style="rounded=0;whiteSpace=wrap;html=1;strokeWidth=2;fontFamily=Comic Sans MS;fontSize=12;" vertex="1" parent="1">
          <mxGeometry x="605" y="360" width="120" height="40" as="geometry" />
        </mxCell>
        <mxCell id="QwdAHC_jwGnzuMrW2I-O-40" value="&lt;b style=&quot;font-size: 12px;&quot;&gt;&lt;font style=&quot;font-size: 12px;&quot;&gt;undo no&lt;br&gt;undo日志编号&lt;br&gt;&lt;/font&gt;&lt;/b&gt;" style="rounded=0;whiteSpace=wrap;html=1;strokeWidth=2;fontFamily=Comic Sans MS;fontSize=12;" vertex="1" parent="1">
          <mxGeometry x="605" y="400" width="120" height="40" as="geometry" />
        </mxCell>
        <mxCell id="QwdAHC_jwGnzuMrW2I-O-41" value="&lt;b style=&quot;font-size: 12px;&quot;&gt;&lt;font style=&quot;font-size: 12px;&quot;&gt;table id&lt;br&gt;对应记录的表id&lt;br&gt;&lt;/font&gt;&lt;/b&gt;" style="rounded=0;whiteSpace=wrap;html=1;strokeWidth=2;fontFamily=Comic Sans MS;fontSize=12;" vertex="1" parent="1">
          <mxGeometry x="605" y="440" width="120" height="40" as="geometry" />
        </mxCell>
        <mxCell id="QwdAHC_jwGnzuMrW2I-O-42" value="&lt;b style=&quot;font-size: 12px;&quot;&gt;&lt;font style=&quot;font-size: 12px;&quot;&gt;info bits&lt;br&gt;&lt;br&gt;&lt;/font&gt;&lt;/b&gt;" style="rounded=0;whiteSpace=wrap;html=1;strokeWidth=2;fontFamily=Comic Sans MS;fontSize=12;" vertex="1" parent="1">
          <mxGeometry x="605" y="480" width="120" height="40" as="geometry" />
        </mxCell>
        <mxCell id="QwdAHC_jwGnzuMrW2I-O-43" style="edgeStyle=orthogonalEdgeStyle;curved=1;rounded=0;orthogonalLoop=1;jettySize=auto;html=1;exitX=0;exitY=0.5;exitDx=0;exitDy=0;entryX=1;entryY=0.5;entryDx=0;entryDy=0;fillColor=#e51400;strokeColor=#B20000;strokeWidth=2;" edge="1" parent="1" source="QwdAHC_jwGnzuMrW2I-O-44" target="QwdAHC_jwGnzuMrW2I-O-13">
          <mxGeometry relative="1" as="geometry" />
        </mxCell>
        <mxCell id="QwdAHC_jwGnzuMrW2I-O-44" value="&lt;b style=&quot;font-size: 12px;&quot;&gt;&lt;font style=&quot;font-size: 12px;&quot;&gt;old trx_id&lt;br&gt;&lt;/font&gt;&lt;/b&gt;" style="rounded=0;whiteSpace=wrap;html=1;strokeWidth=2;fontFamily=Comic Sans MS;fontSize=12;" vertex="1" parent="1">
          <mxGeometry x="605" y="520" width="120" height="40" as="geometry" />
        </mxCell>
        <mxCell id="QwdAHC_jwGnzuMrW2I-O-45" value="&lt;b style=&quot;font-size: 12px;&quot;&gt;&lt;font style=&quot;font-size: 12px;&quot;&gt;old roll_pointer&lt;br&gt;&lt;/font&gt;&lt;/b&gt;" style="rounded=0;whiteSpace=wrap;html=1;strokeWidth=2;fontFamily=Comic Sans MS;fontSize=12;" vertex="1" parent="1">
          <mxGeometry x="605" y="560" width="120" height="40" as="geometry" />
        </mxCell>
        <mxCell id="QwdAHC_jwGnzuMrW2I-O-46" value="&lt;b style=&quot;font-size: 12px;&quot;&gt;&lt;font style=&quot;font-size: 12px;&quot;&gt;主键列信息&lt;br&gt;list&amp;lt;len,value&amp;gt;&lt;br&gt;&lt;/font&gt;&lt;/b&gt;" style="rounded=0;whiteSpace=wrap;html=1;strokeWidth=2;fontFamily=Comic Sans MS;fontSize=12;" vertex="1" parent="1">
          <mxGeometry x="605" y="600" width="120" height="60" as="geometry" />
        </mxCell>
        <mxCell id="QwdAHC_jwGnzuMrW2I-O-47" value="&lt;b style=&quot;font-size: 12px;&quot;&gt;&lt;font style=&quot;font-size: 12px;&quot;&gt;index_col_info len&lt;br&gt;&lt;/font&gt;&lt;/b&gt;" style="rounded=0;whiteSpace=wrap;html=1;strokeWidth=2;fontFamily=Comic Sans MS;fontSize=12;" vertex="1" parent="1">
          <mxGeometry x="605" y="660" width="120" height="40" as="geometry" />
        </mxCell>
        <mxCell id="QwdAHC_jwGnzuMrW2I-O-48" value="&lt;b style=&quot;font-size: 12px;&quot;&gt;&lt;font style=&quot;font-size: 12px;&quot;&gt;索引列信息&lt;br&gt;list&amp;lt;pos,len,value&amp;gt;&lt;br&gt;&lt;/font&gt;&lt;/b&gt;" style="rounded=0;whiteSpace=wrap;html=1;strokeWidth=2;fontFamily=Comic Sans MS;fontSize=12;" vertex="1" parent="1">
          <mxGeometry x="605" y="700" width="120" height="60" as="geometry" />
        </mxCell>
        <mxCell id="QwdAHC_jwGnzuMrW2I-O-49" value="&lt;b style=&quot;font-size: 12px;&quot;&gt;&lt;font style=&quot;font-size: 12px;&quot;&gt;start of record&lt;/font&gt;&lt;/b&gt;" style="rounded=0;whiteSpace=wrap;html=1;strokeWidth=2;fontFamily=Comic Sans MS;fontSize=12;" vertex="1" parent="1">
          <mxGeometry x="605" y="760" width="120" height="40" as="geometry" />
        </mxCell>
        <mxCell id="QwdAHC_jwGnzuMrW2I-O-50" value="TRX_UNDO_DEL_MARK_REC" style="text;html=1;strokeColor=none;fillColor=none;align=left;verticalAlign=middle;whiteSpace=wrap;rounded=0;fontStyle=2" vertex="1" parent="1">
          <mxGeometry x="726" y="370" width="150" height="30" as="geometry" />
        </mxCell>
        <mxCell id="QwdAHC_jwGnzuMrW2I-O-51" value="删除事务未提交前，仅仅将记录的delete_mask标识设置=1（事务提交后会有专门的线程来处理）" style="text;html=1;strokeColor=none;fillColor=none;align=left;verticalAlign=middle;whiteSpace=wrap;rounded=0;fontColor=#000099;" vertex="1" parent="1">
          <mxGeometry x="782" y="220" width="270" height="30" as="geometry" />
        </mxCell>
        <mxCell id="QwdAHC_jwGnzuMrW2I-O-52" value="列（有包含在某个索引中）在记录中的位置/大小/值" style="text;html=1;strokeColor=none;fillColor=none;align=left;verticalAlign=middle;whiteSpace=wrap;rounded=0;fontColor=#000099;" vertex="1" parent="1">
          <mxGeometry x="732" y="715" width="200" height="30" as="geometry" />
        </mxCell>
        <mxCell id="QwdAHC_jwGnzuMrW2I-O-53" value="&lt;b style=&quot;font-size: 12px;&quot;&gt;&lt;font style=&quot;font-size: 12px;&quot;&gt;end of record&lt;/font&gt;&lt;/b&gt;" style="rounded=0;whiteSpace=wrap;html=1;strokeWidth=2;fontFamily=Comic Sans MS;fontSize=12;" vertex="1" parent="1">
          <mxGeometry x="-130" y="320" width="120" height="40" as="geometry" />
        </mxCell>
        <mxCell id="QwdAHC_jwGnzuMrW2I-O-54" value="&lt;b style=&quot;font-size: 12px;&quot;&gt;&lt;font style=&quot;font-size: 12px;&quot;&gt;undo type&lt;br&gt;undo日志类型&lt;br&gt;&lt;/font&gt;&lt;/b&gt;" style="rounded=0;whiteSpace=wrap;html=1;strokeWidth=2;fontFamily=Comic Sans MS;fontSize=12;" vertex="1" parent="1">
          <mxGeometry x="-130" y="360" width="120" height="40" as="geometry" />
        </mxCell>
        <mxCell id="QwdAHC_jwGnzuMrW2I-O-55" value="&lt;b style=&quot;font-size: 12px;&quot;&gt;&lt;font style=&quot;font-size: 12px;&quot;&gt;undo no&lt;br&gt;undo日志编号&lt;br&gt;&lt;/font&gt;&lt;/b&gt;" style="rounded=0;whiteSpace=wrap;html=1;strokeWidth=2;fontFamily=Comic Sans MS;fontSize=12;" vertex="1" parent="1">
          <mxGeometry x="-130" y="400" width="120" height="40" as="geometry" />
        </mxCell>
        <mxCell id="QwdAHC_jwGnzuMrW2I-O-56" value="&lt;b style=&quot;font-size: 12px;&quot;&gt;&lt;font style=&quot;font-size: 12px;&quot;&gt;table id&lt;br&gt;对应记录的表id&lt;br&gt;&lt;/font&gt;&lt;/b&gt;" style="rounded=0;whiteSpace=wrap;html=1;strokeWidth=2;fontFamily=Comic Sans MS;fontSize=12;" vertex="1" parent="1">
          <mxGeometry x="-130" y="480" width="120" height="40" as="geometry" />
        </mxCell>
        <mxCell id="QwdAHC_jwGnzuMrW2I-O-57" value="&lt;b style=&quot;font-size: 12px;&quot;&gt;&lt;font style=&quot;font-size: 12px;&quot;&gt;start of record&lt;/font&gt;&lt;/b&gt;" style="rounded=0;whiteSpace=wrap;html=1;strokeWidth=2;fontFamily=Comic Sans MS;fontSize=12;" vertex="1" parent="1">
          <mxGeometry x="-130" y="860" width="120" height="40" as="geometry" />
        </mxCell>
        <mxCell id="QwdAHC_jwGnzuMrW2I-O-58" value="&lt;b style=&quot;font-size: 12px;&quot;&gt;&lt;font style=&quot;font-size: 12px;&quot;&gt;info bits&lt;br&gt;&lt;br&gt;&lt;/font&gt;&lt;/b&gt;" style="rounded=0;whiteSpace=wrap;html=1;strokeWidth=2;fontFamily=Comic Sans MS;fontSize=12;" vertex="1" parent="1">
          <mxGeometry x="-130" y="440" width="120" height="40" as="geometry" />
        </mxCell>
        <mxCell id="QwdAHC_jwGnzuMrW2I-O-59" style="edgeStyle=orthogonalEdgeStyle;rounded=0;orthogonalLoop=1;jettySize=auto;html=1;exitX=1;exitY=0.5;exitDx=0;exitDy=0;entryX=0;entryY=0.5;entryDx=0;entryDy=0;curved=1;strokeWidth=2;strokeColor=#B20000;" edge="1" parent="1" source="QwdAHC_jwGnzuMrW2I-O-60" target="QwdAHC_jwGnzuMrW2I-O-13">
          <mxGeometry relative="1" as="geometry" />
        </mxCell>
        <mxCell id="QwdAHC_jwGnzuMrW2I-O-60" value="&lt;b style=&quot;font-size: 12px;&quot;&gt;&lt;font style=&quot;font-size: 12px;&quot;&gt;old trx_id&lt;br&gt;&lt;/font&gt;&lt;/b&gt;" style="rounded=0;whiteSpace=wrap;html=1;strokeWidth=2;fontFamily=Comic Sans MS;fontSize=12;" vertex="1" parent="1">
          <mxGeometry x="-130" y="520" width="120" height="40" as="geometry" />
        </mxCell>
        <mxCell id="QwdAHC_jwGnzuMrW2I-O-61" value="&lt;b style=&quot;font-size: 12px;&quot;&gt;&lt;font style=&quot;font-size: 12px;&quot;&gt;old roll_pointer&lt;br&gt;&lt;/font&gt;&lt;/b&gt;" style="rounded=0;whiteSpace=wrap;html=1;strokeWidth=2;fontFamily=Comic Sans MS;fontSize=12;" vertex="1" parent="1">
          <mxGeometry x="-130" y="560" width="120" height="40" as="geometry" />
        </mxCell>
        <mxCell id="QwdAHC_jwGnzuMrW2I-O-62" value="&lt;b style=&quot;font-size: 12px;&quot;&gt;&lt;font style=&quot;font-size: 12px;&quot;&gt;主键列信息&lt;br&gt;list&amp;lt;len,value&amp;gt;&lt;br&gt;&lt;/font&gt;&lt;/b&gt;" style="rounded=0;whiteSpace=wrap;html=1;strokeWidth=2;fontFamily=Comic Sans MS;fontSize=12;" vertex="1" parent="1">
          <mxGeometry x="-130" y="600" width="120" height="60" as="geometry" />
        </mxCell>
        <mxCell id="QwdAHC_jwGnzuMrW2I-O-63" value="&lt;b style=&quot;font-size: 12px;&quot;&gt;&lt;font style=&quot;font-size: 12px;&quot;&gt;n_updated&lt;br&gt;有几个列被更新&lt;br&gt;&lt;/font&gt;&lt;/b&gt;" style="rounded=0;whiteSpace=wrap;html=1;strokeWidth=2;fontFamily=Comic Sans MS;fontSize=12;" vertex="1" parent="1">
          <mxGeometry x="-130" y="660" width="120" height="40" as="geometry" />
        </mxCell>
        <mxCell id="QwdAHC_jwGnzuMrW2I-O-64" value="&lt;b style=&quot;font-size: 12px;&quot;&gt;&lt;font style=&quot;font-size: 12px;&quot;&gt;被更新列之前的信息&lt;br&gt;list&amp;lt;pos,len,value&amp;gt;&lt;br&gt;&lt;/font&gt;&lt;/b&gt;" style="rounded=0;whiteSpace=wrap;html=1;strokeWidth=2;fontFamily=Comic Sans MS;fontSize=12;" vertex="1" parent="1">
          <mxGeometry x="-130" y="700" width="120" height="60" as="geometry" />
        </mxCell>
        <mxCell id="QwdAHC_jwGnzuMrW2I-O-65" value="&lt;b style=&quot;font-size: 12px;&quot;&gt;&lt;font style=&quot;font-size: 12px;&quot;&gt;index_col_info len&lt;br&gt;&lt;br&gt;&lt;/font&gt;&lt;/b&gt;" style="rounded=0;whiteSpace=wrap;html=1;strokeWidth=2;fontFamily=Comic Sans MS;fontSize=12;" vertex="1" parent="1">
          <mxGeometry x="-130" y="760" width="120" height="40" as="geometry" />
        </mxCell>
        <mxCell id="QwdAHC_jwGnzuMrW2I-O-66" value="&lt;b style=&quot;font-size: 12px;&quot;&gt;&lt;font style=&quot;font-size: 12px;&quot;&gt;索引列信息&lt;br&gt;list&amp;lt;pos,len,value&amp;gt;&lt;br&gt;&lt;/font&gt;&lt;/b&gt;" style="rounded=0;whiteSpace=wrap;html=1;strokeWidth=2;fontFamily=Comic Sans MS;fontSize=12;" vertex="1" parent="1">
          <mxGeometry x="-130" y="800" width="120" height="60" as="geometry" />
        </mxCell>
        <mxCell id="QwdAHC_jwGnzuMrW2I-O-67" value="TRX_UNDO__UPD_EXIST_REC" style="text;html=1;strokeColor=none;fillColor=none;align=left;verticalAlign=middle;whiteSpace=wrap;rounded=0;fontStyle=2" vertex="1" parent="1">
          <mxGeometry y="365" width="150" height="30" as="geometry" />
        </mxCell>
        <mxCell id="QwdAHC_jwGnzuMrW2I-O-68" value="修改列中有包含的索引列" style="text;html=1;strokeColor=none;fillColor=none;align=left;verticalAlign=middle;whiteSpace=wrap;rounded=0;fontColor=#000099;" vertex="1" parent="1">
          <mxGeometry y="815" width="150" height="35" as="geometry" />
        </mxCell>
        <mxCell id="QwdAHC_jwGnzuMrW2I-O-69" value="事务中先添加再删除" style="text;html=1;strokeColor=none;fillColor=none;align=left;verticalAlign=middle;whiteSpace=wrap;rounded=0;fontColor=#000099;" vertex="1" parent="1">
          <mxGeometry x="420" y="533" width="118" height="35" as="geometry" />
        </mxCell>
        <mxCell id="QwdAHC_jwGnzuMrW2I-O-70" value="事务中先添加再更新" style="text;html=1;strokeColor=none;fillColor=none;align=left;verticalAlign=middle;whiteSpace=wrap;rounded=0;fontColor=#000099;" vertex="1" parent="1">
          <mxGeometry x="60" y="525" width="118" height="35" as="geometry" />
        </mxCell>
        <mxCell id="QwdAHC_jwGnzuMrW2I-O-71" value="不更新主键的情况：&lt;br&gt;1、就地更新&lt;br&gt;2、先删除旧记录，再插入新记录" style="text;html=1;strokeColor=none;fillColor=none;align=left;verticalAlign=middle;whiteSpace=wrap;rounded=0;fontColor=#000099;" vertex="1" parent="1">
          <mxGeometry x="-130" y="910" width="180" height="50" as="geometry" />
        </mxCell>
        <mxCell id="QwdAHC_jwGnzuMrW2I-O-72" value="聚集索引中，记录是按主键值大小排成单向链表" style="text;html=1;strokeColor=none;fillColor=none;align=left;verticalAlign=middle;whiteSpace=wrap;rounded=0;fontColor=#000099;" vertex="1" parent="1">
          <mxGeometry x="110" y="-64" width="270" height="30" as="geometry" />
        </mxCell>
        <mxCell id="QwdAHC_jwGnzuMrW2I-O-73" value="更新主键的情况：&lt;br&gt;1、对旧记录进行delete mark操作（没有直接删除，避免其他事务访问不到）&lt;br&gt;2、根据更新后各列的值创建一条新记录，将其插入到聚簇索引中&lt;br&gt;&lt;br&gt;该情况会记录两条undo日志：1对应的一条TRX_UNDO_DEL_MARK_REC；2对应的一条TRX_UNDO_INSERT_REC" style="text;html=1;strokeColor=none;fillColor=none;align=left;verticalAlign=middle;whiteSpace=wrap;rounded=0;fontColor=#000099;" vertex="1" parent="1">
          <mxGeometry x="-480" y="560" width="260" height="140" as="geometry" />
        </mxCell>
        <mxCell id="QwdAHC_jwGnzuMrW2I-O-74" value="&lt;b&gt;List Length(4B)&lt;/b&gt;" style="rounded=0;whiteSpace=wrap;html=1;strokeWidth=2;fontFamily=Comic Sans MS;fontSize=12;" vertex="1" parent="1">
          <mxGeometry x="-830" y="-810" width="180" height="40" as="geometry" />
        </mxCell>
        <mxCell id="QwdAHC_jwGnzuMrW2I-O-75" value="&lt;b style=&quot;font-size: 12px;&quot;&gt;&lt;font style=&quot;font-size: 12px;&quot;&gt;First Node Page Number(4B)&lt;br&gt;&lt;/font&gt;&lt;/b&gt;" style="rounded=0;whiteSpace=wrap;html=1;strokeWidth=2;fontFamily=Comic Sans MS;fontSize=12;" vertex="1" parent="1">
          <mxGeometry x="-830" y="-770" width="180" height="40" as="geometry" />
        </mxCell>
        <mxCell id="QwdAHC_jwGnzuMrW2I-O-76" value="&lt;b style=&quot;font-size: 12px;&quot;&gt;&lt;font style=&quot;font-size: 12px;&quot;&gt;First Node Offset(2B)&lt;br&gt;&lt;/font&gt;&lt;/b&gt;" style="rounded=0;whiteSpace=wrap;html=1;strokeWidth=2;fontFamily=Comic Sans MS;fontSize=12;" vertex="1" parent="1">
          <mxGeometry x="-830" y="-730" width="180" height="40" as="geometry" />
        </mxCell>
        <mxCell id="QwdAHC_jwGnzuMrW2I-O-77" value="&lt;b style=&quot;font-size: 12px;&quot;&gt;&lt;font style=&quot;font-size: 12px;&quot;&gt;Last Node Page Number(4B)&lt;br&gt;&lt;/font&gt;&lt;/b&gt;" style="rounded=0;whiteSpace=wrap;html=1;strokeWidth=2;fontFamily=Comic Sans MS;fontSize=12;" vertex="1" parent="1">
          <mxGeometry x="-830" y="-690" width="180" height="40" as="geometry" />
        </mxCell>
        <mxCell id="QwdAHC_jwGnzuMrW2I-O-78" value="&lt;b style=&quot;font-size: 12px;&quot;&gt;&lt;font style=&quot;font-size: 12px;&quot;&gt;Last Node Offset(2B)&lt;br&gt;&lt;/font&gt;&lt;/b&gt;" style="rounded=0;whiteSpace=wrap;html=1;strokeWidth=2;fontFamily=Comic Sans MS;fontSize=12;" vertex="1" parent="1">
          <mxGeometry x="-830" y="-650" width="180" height="40" as="geometry" />
        </mxCell>
        <mxCell id="QwdAHC_jwGnzuMrW2I-O-79" style="edgeStyle=orthogonalEdgeStyle;rounded=0;orthogonalLoop=1;jettySize=auto;html=1;entryX=0.5;entryY=0;entryDx=0;entryDy=0;exitX=0.5;exitY=0;exitDx=0;exitDy=0;" edge="1" parent="1" source="QwdAHC_jwGnzuMrW2I-O-80" target="QwdAHC_jwGnzuMrW2I-O-84">
          <mxGeometry relative="1" as="geometry" />
        </mxCell>
        <mxCell id="QwdAHC_jwGnzuMrW2I-O-80" value="对应指向链表头节点的指针" style="text;html=1;strokeColor=none;fillColor=none;align=left;verticalAlign=middle;whiteSpace=wrap;rounded=0;fontColor=#000099;" vertex="1" parent="1">
          <mxGeometry x="-650" y="-740" width="170" height="20" as="geometry" />
        </mxCell>
        <mxCell id="QwdAHC_jwGnzuMrW2I-O-81" style="edgeStyle=orthogonalEdgeStyle;rounded=0;orthogonalLoop=1;jettySize=auto;html=1;entryX=0.5;entryY=1;entryDx=0;entryDy=0;exitX=0.5;exitY=1;exitDx=0;exitDy=0;" edge="1" parent="1" source="QwdAHC_jwGnzuMrW2I-O-82" target="QwdAHC_jwGnzuMrW2I-O-96">
          <mxGeometry relative="1" as="geometry" />
        </mxCell>
        <mxCell id="QwdAHC_jwGnzuMrW2I-O-82" value="对应指向链表尾节点的指针" style="text;html=1;strokeColor=none;fillColor=none;align=left;verticalAlign=middle;whiteSpace=wrap;rounded=0;fontColor=#000099;" vertex="1" parent="1">
          <mxGeometry x="-650" y="-660" width="170" height="20" as="geometry" />
        </mxCell>
        <mxCell id="QwdAHC_jwGnzuMrW2I-O-83" value="List Base Node" style="text;html=1;strokeColor=none;fillColor=none;align=left;verticalAlign=middle;whiteSpace=wrap;rounded=0;fontColor=#000099;" vertex="1" parent="1">
          <mxGeometry x="-800" y="-830" width="170" height="20" as="geometry" />
        </mxCell>
        <mxCell id="QwdAHC_jwGnzuMrW2I-O-84" value="&lt;b&gt;prev&lt;/b&gt;" style="rounded=0;whiteSpace=wrap;html=1;strokeWidth=2;fontFamily=Comic Sans MS;fontSize=12;" vertex="1" parent="1">
          <mxGeometry x="-450" y="-710" width="100" height="20" as="geometry" />
        </mxCell>
        <mxCell id="QwdAHC_jwGnzuMrW2I-O-85" style="edgeStyle=orthogonalEdgeStyle;rounded=0;orthogonalLoop=1;jettySize=auto;html=1;exitX=1;exitY=0.5;exitDx=0;exitDy=0;entryX=0;entryY=0.5;entryDx=0;entryDy=0;" edge="1" parent="1" source="QwdAHC_jwGnzuMrW2I-O-86" target="QwdAHC_jwGnzuMrW2I-O-91">
          <mxGeometry relative="1" as="geometry" />
        </mxCell>
        <mxCell id="QwdAHC_jwGnzuMrW2I-O-86" value="&lt;b style=&quot;font-size: 12px;&quot;&gt;&lt;font style=&quot;font-size: 12px;&quot;&gt;next&lt;br&gt;&lt;/font&gt;&lt;/b&gt;" style="rounded=0;whiteSpace=wrap;html=1;strokeWidth=2;fontFamily=Comic Sans MS;fontSize=12;" vertex="1" parent="1">
          <mxGeometry x="-450" y="-690" width="100" height="20" as="geometry" />
        </mxCell>
        <mxCell id="QwdAHC_jwGnzuMrW2I-O-87" value="&lt;b style=&quot;font-size: 12px;&quot;&gt;&lt;font style=&quot;font-size: 12px;&quot;&gt;data&lt;br&gt;&lt;/font&gt;&lt;/b&gt;" style="rounded=0;whiteSpace=wrap;html=1;strokeWidth=2;fontFamily=Comic Sans MS;fontSize=12;" vertex="1" parent="1">
          <mxGeometry x="-450" y="-670" width="100" height="20" as="geometry" />
        </mxCell>
        <mxCell id="QwdAHC_jwGnzuMrW2I-O-88" style="edgeStyle=orthogonalEdgeStyle;rounded=0;orthogonalLoop=1;jettySize=auto;html=1;exitX=0;exitY=0.5;exitDx=0;exitDy=0;entryX=1;entryY=0.5;entryDx=0;entryDy=0;" edge="1" parent="1" source="QwdAHC_jwGnzuMrW2I-O-89" target="QwdAHC_jwGnzuMrW2I-O-84">
          <mxGeometry relative="1" as="geometry" />
        </mxCell>
        <mxCell id="QwdAHC_jwGnzuMrW2I-O-89" value="&lt;b&gt;prev&lt;/b&gt;" style="rounded=0;whiteSpace=wrap;html=1;strokeWidth=2;fontFamily=Comic Sans MS;fontSize=12;" vertex="1" parent="1">
          <mxGeometry x="-280" y="-710" width="100" height="20" as="geometry" />
        </mxCell>
        <mxCell id="QwdAHC_jwGnzuMrW2I-O-90" style="edgeStyle=orthogonalEdgeStyle;rounded=0;orthogonalLoop=1;jettySize=auto;html=1;exitX=1;exitY=0.5;exitDx=0;exitDy=0;entryX=0;entryY=0.5;entryDx=0;entryDy=0;" edge="1" parent="1" source="QwdAHC_jwGnzuMrW2I-O-91" target="QwdAHC_jwGnzuMrW2I-O-95">
          <mxGeometry relative="1" as="geometry" />
        </mxCell>
        <mxCell id="QwdAHC_jwGnzuMrW2I-O-91" value="&lt;b style=&quot;font-size: 12px;&quot;&gt;&lt;font style=&quot;font-size: 12px;&quot;&gt;next&lt;br&gt;&lt;/font&gt;&lt;/b&gt;" style="rounded=0;whiteSpace=wrap;html=1;strokeWidth=2;fontFamily=Comic Sans MS;fontSize=12;" vertex="1" parent="1">
          <mxGeometry x="-280" y="-690" width="100" height="20" as="geometry" />
        </mxCell>
        <mxCell id="QwdAHC_jwGnzuMrW2I-O-92" value="&lt;b style=&quot;font-size: 12px;&quot;&gt;&lt;font style=&quot;font-size: 12px;&quot;&gt;data&lt;br&gt;&lt;/font&gt;&lt;/b&gt;" style="rounded=0;whiteSpace=wrap;html=1;strokeWidth=2;fontFamily=Comic Sans MS;fontSize=12;" vertex="1" parent="1">
          <mxGeometry x="-280" y="-670" width="100" height="20" as="geometry" />
        </mxCell>
        <mxCell id="QwdAHC_jwGnzuMrW2I-O-93" style="edgeStyle=orthogonalEdgeStyle;rounded=0;orthogonalLoop=1;jettySize=auto;html=1;exitX=0;exitY=0.5;exitDx=0;exitDy=0;entryX=1;entryY=0.5;entryDx=0;entryDy=0;" edge="1" parent="1" source="QwdAHC_jwGnzuMrW2I-O-94" target="QwdAHC_jwGnzuMrW2I-O-89">
          <mxGeometry relative="1" as="geometry" />
        </mxCell>
        <mxCell id="QwdAHC_jwGnzuMrW2I-O-94" value="&lt;b&gt;prev&lt;/b&gt;" style="rounded=0;whiteSpace=wrap;html=1;strokeWidth=2;fontFamily=Comic Sans MS;fontSize=12;" vertex="1" parent="1">
          <mxGeometry x="-110" y="-710" width="100" height="20" as="geometry" />
        </mxCell>
        <mxCell id="QwdAHC_jwGnzuMrW2I-O-95" value="&lt;b style=&quot;font-size: 12px;&quot;&gt;&lt;font style=&quot;font-size: 12px;&quot;&gt;next&lt;br&gt;&lt;/font&gt;&lt;/b&gt;" style="rounded=0;whiteSpace=wrap;html=1;strokeWidth=2;fontFamily=Comic Sans MS;fontSize=12;" vertex="1" parent="1">
          <mxGeometry x="-110" y="-690" width="100" height="20" as="geometry" />
        </mxCell>
        <mxCell id="QwdAHC_jwGnzuMrW2I-O-96" value="&lt;b style=&quot;font-size: 12px;&quot;&gt;&lt;font style=&quot;font-size: 12px;&quot;&gt;data&lt;br&gt;&lt;/font&gt;&lt;/b&gt;" style="rounded=0;whiteSpace=wrap;html=1;strokeWidth=2;fontFamily=Comic Sans MS;fontSize=12;" vertex="1" parent="1">
          <mxGeometry x="-110" y="-670" width="100" height="20" as="geometry" />
        </mxCell>
        <mxCell id="QwdAHC_jwGnzuMrW2I-O-97" value="List Node" style="text;html=1;strokeColor=none;fillColor=none;align=left;verticalAlign=middle;whiteSpace=wrap;rounded=0;fontColor=#000099;" vertex="1" parent="1">
          <mxGeometry x="-260" y="-730" width="70" height="20" as="geometry" />
        </mxCell>
        <mxCell id="QwdAHC_jwGnzuMrW2I-O-98" value="&lt;b&gt;File Header(38B)&lt;/b&gt;" style="rounded=0;whiteSpace=wrap;html=1;strokeWidth=2;fontFamily=Comic Sans MS;fontSize=12;fillColor=#ffe6cc;strokeColor=#d79b00;" vertex="1" parent="1">
          <mxGeometry x="1150" y="290" width="250" height="40" as="geometry" />
        </mxCell>
        <mxCell id="QwdAHC_jwGnzuMrW2I-O-99" value="&lt;b&gt;Undo Page Header(18B)&lt;/b&gt;" style="rounded=0;whiteSpace=wrap;html=1;strokeWidth=2;fontFamily=Comic Sans MS;fontSize=12;" vertex="1" parent="1">
          <mxGeometry x="1150" y="330" width="250" height="40" as="geometry" />
        </mxCell>
        <mxCell id="QwdAHC_jwGnzuMrW2I-O-100" value="FIL_PAGE_UNDO_LOG(undo页面)" style="text;html=1;strokeColor=none;fillColor=none;align=center;verticalAlign=middle;whiteSpace=wrap;rounded=0;fontStyle=1;fontColor=#FF0000;" vertex="1" parent="1">
          <mxGeometry x="1158" y="260" width="235" height="30" as="geometry" />
        </mxCell>
        <mxCell id="QwdAHC_jwGnzuMrW2I-O-101" value="&lt;b&gt;File Trailer(8B)&lt;/b&gt;" style="rounded=0;whiteSpace=wrap;html=1;strokeWidth=2;fontFamily=Comic Sans MS;fontSize=12;fillColor=#ffe6cc;strokeColor=#d79b00;" vertex="1" parent="1">
          <mxGeometry x="1150" y="550" width="250" height="40" as="geometry" />
        </mxCell>
        <mxCell id="QwdAHC_jwGnzuMrW2I-O-102" value="&lt;b&gt;存放undo日志+其他数据&lt;/b&gt;" style="rounded=0;whiteSpace=wrap;html=1;strokeWidth=2;fontFamily=Comic Sans MS;fontSize=12;" vertex="1" parent="1">
          <mxGeometry x="1150" y="370" width="250" height="180" as="geometry" />
        </mxCell>
        <mxCell id="QwdAHC_jwGnzuMrW2I-O-103" value="&lt;b&gt;TRX_UNDO_PAGE_TYPE(2B)&lt;br&gt;页面存储什么类型的undo日志&lt;br&gt;&lt;/b&gt;" style="rounded=0;whiteSpace=wrap;html=1;strokeWidth=2;fontFamily=Comic Sans MS;fontSize=12;" vertex="1" parent="1">
          <mxGeometry x="1450" y="270" width="300" height="40" as="geometry" />
        </mxCell>
        <mxCell id="QwdAHC_jwGnzuMrW2I-O-104" value="&lt;b&gt;TRX_UNDO_PAGE_START(2B)&lt;br&gt;当前页面中从什么位置开始存储（1st日志起始偏移量）&lt;br&gt;&lt;/b&gt;" style="rounded=0;whiteSpace=wrap;html=1;strokeWidth=2;fontFamily=Comic Sans MS;fontSize=12;" vertex="1" parent="1">
          <mxGeometry x="1450" y="310" width="300" height="40" as="geometry" />
        </mxCell>
        <mxCell id="QwdAHC_jwGnzuMrW2I-O-105" value="&lt;b&gt;TRX_UNDO_PAGE_FREE(2B)&lt;br&gt;从这个位置开始，可以继续写入新的undo日志&lt;br&gt;&lt;/b&gt;" style="rounded=0;whiteSpace=wrap;html=1;strokeWidth=2;fontFamily=Comic Sans MS;fontSize=12;" vertex="1" parent="1">
          <mxGeometry x="1450" y="350" width="300" height="40" as="geometry" />
        </mxCell>
        <mxCell id="QwdAHC_jwGnzuMrW2I-O-106" value="&lt;b&gt;TRX_UNDO_PAGE_NODE(12B)&lt;br&gt;List Node结构组成一条链表&lt;br&gt;&lt;/b&gt;" style="rounded=0;whiteSpace=wrap;html=1;strokeWidth=2;fontFamily=Comic Sans MS;fontSize=12;" vertex="1" parent="1">
          <mxGeometry x="1450" y="390" width="300" height="40" as="geometry" />
        </mxCell>
        <mxCell id="QwdAHC_jwGnzuMrW2I-O-107" value="1:TRX_UNDO_INSERT_REC(insert or 更新主键)&lt;br&gt;2:其他&lt;br&gt;不同大类的undo日志不能混存" style="text;html=1;strokeColor=none;fillColor=none;align=left;verticalAlign=middle;whiteSpace=wrap;rounded=0;fontColor=#000099;" vertex="1" parent="1">
          <mxGeometry x="1760" y="275" width="270" height="30" as="geometry" />
        </mxCell>
        <mxCell id="QwdAHC_jwGnzuMrW2I-O-108" value="" style="shape=curlyBracket;whiteSpace=wrap;html=1;rounded=1;labelPosition=left;verticalLabelPosition=middle;align=right;verticalAlign=middle;" vertex="1" parent="1">
          <mxGeometry x="1410" y="290" width="20" height="120" as="geometry" />
        </mxCell>
        <mxCell id="QwdAHC_jwGnzuMrW2I-O-109" value="一个事务若有很多undo日志，涉及多个页面（用List Node）组成一个链表。&lt;br&gt;根据不同大类，可能需要2个undo页面链表：insert undo链表 &amp;amp; update undo链表&lt;br&gt;对普通表和临时表的改动要分别记录，故一个事务最多有4个undo链表&lt;br&gt;为避免浪费采用按需分配：什么时候需要才分配" style="text;html=1;strokeColor=none;fillColor=none;align=left;verticalAlign=middle;whiteSpace=wrap;rounded=0;fontColor=#000099;" vertex="1" parent="1">
          <mxGeometry x="1450" y="730" width="460" height="72" as="geometry" />
        </mxCell>
        <mxCell id="QwdAHC_jwGnzuMrW2I-O-110" value="" style="edgeStyle=orthogonalEdgeStyle;rounded=0;orthogonalLoop=1;jettySize=auto;html=1;startArrow=classic;startFill=1;" edge="1" parent="1" source="QwdAHC_jwGnzuMrW2I-O-111" target="QwdAHC_jwGnzuMrW2I-O-113">
          <mxGeometry relative="1" as="geometry" />
        </mxCell>
        <mxCell id="QwdAHC_jwGnzuMrW2I-O-111" value="" style="rounded=0;whiteSpace=wrap;html=1;strokeWidth=2;fontFamily=Comic Sans MS;fontSize=12;" vertex="1" parent="1">
          <mxGeometry x="1150" y="835" width="130" height="60" as="geometry" />
        </mxCell>
        <mxCell id="QwdAHC_jwGnzuMrW2I-O-112" value="" style="edgeStyle=orthogonalEdgeStyle;rounded=0;orthogonalLoop=1;jettySize=auto;html=1;startArrow=classic;startFill=1;" edge="1" parent="1" source="QwdAHC_jwGnzuMrW2I-O-113" target="QwdAHC_jwGnzuMrW2I-O-115">
          <mxGeometry relative="1" as="geometry" />
        </mxCell>
        <mxCell id="QwdAHC_jwGnzuMrW2I-O-113" value="" style="rounded=0;whiteSpace=wrap;html=1;strokeWidth=2;fontFamily=Comic Sans MS;fontSize=12;" vertex="1" parent="1">
          <mxGeometry x="1350" y="835" width="130" height="60" as="geometry" />
        </mxCell>
        <mxCell id="QwdAHC_jwGnzuMrW2I-O-114" value="" style="edgeStyle=orthogonalEdgeStyle;rounded=0;orthogonalLoop=1;jettySize=auto;html=1;startArrow=classic;startFill=1;" edge="1" parent="1" source="QwdAHC_jwGnzuMrW2I-O-115" target="QwdAHC_jwGnzuMrW2I-O-116">
          <mxGeometry relative="1" as="geometry" />
        </mxCell>
        <mxCell id="QwdAHC_jwGnzuMrW2I-O-115" value="&lt;b&gt;......&lt;/b&gt;" style="rounded=0;whiteSpace=wrap;html=1;strokeWidth=2;fontFamily=Comic Sans MS;fontSize=12;opacity=0;" vertex="1" parent="1">
          <mxGeometry x="1550" y="835" width="130" height="60" as="geometry" />
        </mxCell>
        <mxCell id="QwdAHC_jwGnzuMrW2I-O-116" value="" style="rounded=0;whiteSpace=wrap;html=1;strokeWidth=2;fontFamily=Comic Sans MS;fontSize=12;" vertex="1" parent="1">
          <mxGeometry x="1740" y="835" width="130" height="60" as="geometry" />
        </mxCell>
        <mxCell id="QwdAHC_jwGnzuMrW2I-O-117" value="first undo page" style="text;html=1;strokeColor=none;fillColor=none;align=center;verticalAlign=middle;whiteSpace=wrap;rounded=0;fontStyle=1;fontColor=#FF0000;" vertex="1" parent="1">
          <mxGeometry x="1160" y="810" width="115" height="25" as="geometry" />
        </mxCell>
        <mxCell id="QwdAHC_jwGnzuMrW2I-O-118" value="normal undo page" style="text;html=1;strokeColor=none;fillColor=none;align=center;verticalAlign=middle;whiteSpace=wrap;rounded=0;fontStyle=1;fontColor=#FF0000;" vertex="1" parent="1">
          <mxGeometry x="1510" y="810" width="115" height="25" as="geometry" />
        </mxCell>
        <mxCell id="QwdAHC_jwGnzuMrW2I-O-119" value="" style="edgeStyle=orthogonalEdgeStyle;rounded=0;orthogonalLoop=1;jettySize=auto;html=1;startArrow=classic;startFill=1;" edge="1" parent="1" source="QwdAHC_jwGnzuMrW2I-O-120" target="QwdAHC_jwGnzuMrW2I-O-122">
          <mxGeometry relative="1" as="geometry" />
        </mxCell>
        <mxCell id="QwdAHC_jwGnzuMrW2I-O-120" value="" style="rounded=0;whiteSpace=wrap;html=1;strokeWidth=2;fontFamily=Comic Sans MS;fontSize=12;" vertex="1" parent="1">
          <mxGeometry x="1150" y="950" width="130" height="60" as="geometry" />
        </mxCell>
        <mxCell id="QwdAHC_jwGnzuMrW2I-O-121" value="" style="edgeStyle=orthogonalEdgeStyle;rounded=0;orthogonalLoop=1;jettySize=auto;html=1;startArrow=classic;startFill=1;" edge="1" parent="1" source="QwdAHC_jwGnzuMrW2I-O-122" target="QwdAHC_jwGnzuMrW2I-O-124">
          <mxGeometry relative="1" as="geometry" />
        </mxCell>
        <mxCell id="QwdAHC_jwGnzuMrW2I-O-122" value="" style="rounded=0;whiteSpace=wrap;html=1;strokeWidth=2;fontFamily=Comic Sans MS;fontSize=12;" vertex="1" parent="1">
          <mxGeometry x="1350" y="950" width="130" height="60" as="geometry" />
        </mxCell>
        <mxCell id="QwdAHC_jwGnzuMrW2I-O-123" value="" style="edgeStyle=orthogonalEdgeStyle;rounded=0;orthogonalLoop=1;jettySize=auto;html=1;startArrow=classic;startFill=1;" edge="1" parent="1" source="QwdAHC_jwGnzuMrW2I-O-124" target="QwdAHC_jwGnzuMrW2I-O-125">
          <mxGeometry relative="1" as="geometry" />
        </mxCell>
        <mxCell id="QwdAHC_jwGnzuMrW2I-O-124" value="&lt;b&gt;......&lt;/b&gt;" style="rounded=0;whiteSpace=wrap;html=1;strokeWidth=2;fontFamily=Comic Sans MS;fontSize=12;opacity=0;" vertex="1" parent="1">
          <mxGeometry x="1550" y="950" width="130" height="60" as="geometry" />
        </mxCell>
        <mxCell id="QwdAHC_jwGnzuMrW2I-O-125" value="" style="rounded=0;whiteSpace=wrap;html=1;strokeWidth=2;fontFamily=Comic Sans MS;fontSize=12;" vertex="1" parent="1">
          <mxGeometry x="1740" y="950" width="130" height="60" as="geometry" />
        </mxCell>
        <mxCell id="QwdAHC_jwGnzuMrW2I-O-126" value="first undo page" style="text;html=1;strokeColor=none;fillColor=none;align=center;verticalAlign=middle;whiteSpace=wrap;rounded=0;fontStyle=1;fontColor=#FF0000;" vertex="1" parent="1">
          <mxGeometry x="1160" y="925" width="115" height="25" as="geometry" />
        </mxCell>
        <mxCell id="QwdAHC_jwGnzuMrW2I-O-127" value="normal undo page" style="text;html=1;strokeColor=none;fillColor=none;align=center;verticalAlign=middle;whiteSpace=wrap;rounded=0;fontStyle=1;fontColor=#FF0000;" vertex="1" parent="1">
          <mxGeometry x="1510" y="925" width="115" height="25" as="geometry" />
        </mxCell>
        <mxCell id="QwdAHC_jwGnzuMrW2I-O-128" value="insert" style="text;html=1;strokeColor=none;fillColor=none;align=center;verticalAlign=middle;whiteSpace=wrap;rounded=0;fontStyle=1;fontColor=#0000CC;" vertex="1" parent="1">
          <mxGeometry x="1052" y="850" width="70" height="30" as="geometry" />
        </mxCell>
        <mxCell id="QwdAHC_jwGnzuMrW2I-O-129" value="update" style="text;html=1;strokeColor=none;fillColor=none;align=center;verticalAlign=middle;whiteSpace=wrap;rounded=0;fontStyle=1;fontColor=#0000CC;" vertex="1" parent="1">
          <mxGeometry x="1052" y="965" width="70" height="30" as="geometry" />
        </mxCell>
        <mxCell id="QwdAHC_jwGnzuMrW2I-O-130" value="每一个undo链表对应一个段，在其first undo page中会单独有一个undo log segment header部分（存放segment header）+ undo log header" style="text;html=1;strokeColor=none;fillColor=none;align=left;verticalAlign=middle;whiteSpace=wrap;rounded=0;fontColor=#000099;" vertex="1" parent="1">
          <mxGeometry x="1090" y="1063" width="280" height="50" as="geometry" />
        </mxCell>
        <mxCell id="QwdAHC_jwGnzuMrW2I-O-131" value="&lt;b&gt;File Header(38B)&lt;/b&gt;" style="rounded=0;whiteSpace=wrap;html=1;strokeWidth=2;fontFamily=Comic Sans MS;fontSize=12;fillColor=#ffe6cc;strokeColor=#d79b00;" vertex="1" parent="1">
          <mxGeometry x="1090" y="1173" width="250" height="40" as="geometry" />
        </mxCell>
        <mxCell id="QwdAHC_jwGnzuMrW2I-O-132" value="&lt;b&gt;Undo Page Header(18B)&lt;/b&gt;" style="rounded=0;whiteSpace=wrap;html=1;strokeWidth=2;fontFamily=Comic Sans MS;fontSize=12;fillColor=#dae8fc;strokeColor=#6c8ebf;" vertex="1" parent="1">
          <mxGeometry x="1090" y="1213" width="250" height="40" as="geometry" />
        </mxCell>
        <mxCell id="QwdAHC_jwGnzuMrW2I-O-133" value="FIL_PAGE_UNDO_LOG&lt;br&gt;(first undo page)" style="text;html=1;strokeColor=none;fillColor=none;align=center;verticalAlign=middle;whiteSpace=wrap;rounded=0;fontStyle=1;fontColor=#FF0000;" vertex="1" parent="1">
          <mxGeometry x="1098" y="1143" width="235" height="30" as="geometry" />
        </mxCell>
        <mxCell id="QwdAHC_jwGnzuMrW2I-O-134" value="&lt;b&gt;File Trailer(8B)&lt;/b&gt;" style="rounded=0;whiteSpace=wrap;html=1;strokeWidth=2;fontFamily=Comic Sans MS;fontSize=12;fillColor=#ffe6cc;strokeColor=#d79b00;" vertex="1" parent="1">
          <mxGeometry x="1089.5" y="1443" width="250" height="40" as="geometry" />
        </mxCell>
        <mxCell id="QwdAHC_jwGnzuMrW2I-O-135" value="&lt;b&gt;存放undo日志&lt;/b&gt;" style="rounded=0;whiteSpace=wrap;html=1;strokeWidth=2;fontFamily=Comic Sans MS;fontSize=12;" vertex="1" parent="1">
          <mxGeometry x="1089.5" y="1353" width="250" height="90" as="geometry" />
        </mxCell>
        <mxCell id="QwdAHC_jwGnzuMrW2I-O-136" value="&lt;b&gt;Undo log segment Header(30B)&lt;/b&gt;" style="rounded=0;whiteSpace=wrap;html=1;strokeWidth=2;fontFamily=Comic Sans MS;fontSize=12;fillColor=#e1d5e7;strokeColor=#9673a6;" vertex="1" parent="1">
          <mxGeometry x="1090" y="1253" width="250" height="40" as="geometry" />
        </mxCell>
        <mxCell id="QwdAHC_jwGnzuMrW2I-O-137" value="&lt;b&gt;TRX_UNDO_STATE(2B)&lt;br&gt;页面存储什么类型的undo日志&lt;br&gt;&lt;/b&gt;" style="rounded=0;whiteSpace=wrap;html=1;strokeWidth=2;fontFamily=Comic Sans MS;fontSize=12;" vertex="1" parent="1">
          <mxGeometry x="1380" y="1193" width="300" height="40" as="geometry" />
        </mxCell>
        <mxCell id="QwdAHC_jwGnzuMrW2I-O-138" value="&lt;b&gt;TRX_UNDO_LAST_LOG(2B)&lt;/b&gt;&lt;br&gt;&lt;b&gt;链表中最后一个Undo Log Header的位置&lt;/b&gt;" style="rounded=0;whiteSpace=wrap;html=1;strokeWidth=2;fontFamily=Comic Sans MS;fontSize=12;" vertex="1" parent="1">
          <mxGeometry x="1380" y="1233" width="300" height="40" as="geometry" />
        </mxCell>
        <mxCell id="QwdAHC_jwGnzuMrW2I-O-139" value="&lt;b&gt;TRX_UNDO_FSEG_HEADER(10B)&lt;/b&gt;&lt;br&gt;&lt;b&gt;链表对应的段的Segment Header信息&lt;/b&gt;" style="rounded=0;whiteSpace=wrap;html=1;strokeWidth=2;fontFamily=Comic Sans MS;fontSize=12;" vertex="1" parent="1">
          <mxGeometry x="1380" y="1273" width="300" height="40" as="geometry" />
        </mxCell>
        <mxCell id="QwdAHC_jwGnzuMrW2I-O-140" value="&lt;b&gt;TRX_UNDO_PAGE_NODE(12B)&lt;/b&gt;&lt;br&gt;&lt;b&gt;链表的基节点(List Base Node)&lt;/b&gt;" style="rounded=0;whiteSpace=wrap;html=1;strokeWidth=2;fontFamily=Comic Sans MS;fontSize=12;" vertex="1" parent="1">
          <mxGeometry x="1380" y="1313" width="300" height="40" as="geometry" />
        </mxCell>
        <mxCell id="QwdAHC_jwGnzuMrW2I-O-141" value="" style="shape=curlyBracket;whiteSpace=wrap;html=1;rounded=1;labelPosition=left;verticalLabelPosition=middle;align=right;verticalAlign=middle;" vertex="1" parent="1">
          <mxGeometry x="1341" y="1213" width="20" height="120" as="geometry" />
        </mxCell>
        <mxCell id="QwdAHC_jwGnzuMrW2I-O-142" value="&lt;b&gt;Undo log Header(186B)&lt;/b&gt;" style="rounded=0;whiteSpace=wrap;html=1;strokeWidth=2;fontFamily=Comic Sans MS;fontSize=12;fillColor=#e1d5e7;strokeColor=#9673a6;" vertex="1" parent="1">
          <mxGeometry x="1090" y="1293" width="250" height="60" as="geometry" />
        </mxCell>
        <mxCell id="QwdAHC_jwGnzuMrW2I-O-143" value="&lt;b&gt;Space ID of the INODE Entry(4B)&lt;/b&gt;" style="rounded=0;whiteSpace=wrap;html=1;strokeWidth=2;fontFamily=Comic Sans MS;fontSize=12;" vertex="1" parent="1">
          <mxGeometry x="1710" y="1233" width="300" height="40" as="geometry" />
        </mxCell>
        <mxCell id="QwdAHC_jwGnzuMrW2I-O-144" value="&lt;b&gt;Page Number of the INODE Entry(4B)&lt;/b&gt;" style="rounded=0;whiteSpace=wrap;html=1;strokeWidth=2;fontFamily=Comic Sans MS;fontSize=12;" vertex="1" parent="1">
          <mxGeometry x="1710" y="1273" width="300" height="40" as="geometry" />
        </mxCell>
        <mxCell id="QwdAHC_jwGnzuMrW2I-O-145" value="&lt;b&gt;Byte Offset of the INODE Ent(2B)&lt;/b&gt;" style="rounded=0;whiteSpace=wrap;html=1;strokeWidth=2;fontFamily=Comic Sans MS;fontSize=12;" vertex="1" parent="1">
          <mxGeometry x="1710" y="1313" width="300" height="40" as="geometry" />
        </mxCell>
        <mxCell id="QwdAHC_jwGnzuMrW2I-O-146" value="" style="shape=curlyBracket;whiteSpace=wrap;html=1;rounded=1;labelPosition=left;verticalLabelPosition=middle;align=right;verticalAlign=middle;" vertex="1" parent="1">
          <mxGeometry x="1680" y="1253" width="20" height="80" as="geometry" />
        </mxCell>
        <mxCell id="QwdAHC_jwGnzuMrW2I-O-147" value="表空间ID+页面号+页面偏移量" style="text;html=1;strokeColor=none;fillColor=none;align=center;verticalAlign=middle;whiteSpace=wrap;rounded=0;fontStyle=1;fontColor=#0000CC;" vertex="1" parent="1">
          <mxGeometry x="2020" y="1283" width="170" height="30" as="geometry" />
        </mxCell>
        <mxCell id="QwdAHC_jwGnzuMrW2I-O-148" value="&lt;b&gt;TRX_UNDO_TRX_ID(8B)&lt;br&gt;本组事务id&lt;br&gt;&lt;/b&gt;" style="rounded=0;whiteSpace=wrap;html=1;strokeWidth=2;fontFamily=Comic Sans MS;fontSize=12;" vertex="1" parent="1">
          <mxGeometry x="690" y="1203" width="360" height="40" as="geometry" />
        </mxCell>
        <mxCell id="QwdAHC_jwGnzuMrW2I-O-149" value="&lt;b&gt;TRX_UNDO_TRX_NO(8B)&lt;/b&gt;&lt;br&gt;&lt;b&gt;事务提交后生成的一个序号，使用此序号来标记事务提交顺序&lt;/b&gt;" style="rounded=0;whiteSpace=wrap;html=1;strokeWidth=2;fontFamily=Comic Sans MS;fontSize=12;" vertex="1" parent="1">
          <mxGeometry x="690" y="1243" width="360" height="40" as="geometry" />
        </mxCell>
        <mxCell id="QwdAHC_jwGnzuMrW2I-O-150" value="&lt;b&gt;XID信息(140B)&lt;br&gt;&lt;br&gt;&lt;/b&gt;" style="rounded=0;whiteSpace=wrap;html=1;strokeWidth=2;fontFamily=Comic Sans MS;fontSize=12;" vertex="1" parent="1">
          <mxGeometry x="690" y="1603" width="360" height="40" as="geometry" />
        </mxCell>
        <mxCell id="QwdAHC_jwGnzuMrW2I-O-151" value="&lt;b&gt;TRX_UNDO_DEL_MASKS(2B)&lt;/b&gt;&lt;br&gt;&lt;b&gt;是否包含由于Delete mark操作产生的undo日志&lt;/b&gt;" style="rounded=0;whiteSpace=wrap;html=1;strokeWidth=2;fontFamily=Comic Sans MS;fontSize=12;" vertex="1" parent="1">
          <mxGeometry x="690" y="1283" width="360" height="40" as="geometry" />
        </mxCell>
        <mxCell id="QwdAHC_jwGnzuMrW2I-O-152" value="&lt;b&gt;TRX_UNDO_TABLE_ID(8B)&lt;/b&gt;&lt;br&gt;&lt;b&gt;DDL语句操作的表的table id&lt;/b&gt;" style="rounded=0;whiteSpace=wrap;html=1;strokeWidth=2;fontFamily=Comic Sans MS;fontSize=12;" vertex="1" parent="1">
          <mxGeometry x="690" y="1443" width="360" height="40" as="geometry" />
        </mxCell>
        <mxCell id="QwdAHC_jwGnzuMrW2I-O-153" value="&lt;b&gt;TRX_UNDO_DICT_TRANS(1B)&lt;/b&gt;&lt;br&gt;&lt;b&gt;是不是由DDL语句产生的&lt;/b&gt;" style="rounded=0;whiteSpace=wrap;html=1;strokeWidth=2;fontFamily=Comic Sans MS;fontSize=12;" vertex="1" parent="1">
          <mxGeometry x="690" y="1403" width="360" height="40" as="geometry" />
        </mxCell>
        <mxCell id="QwdAHC_jwGnzuMrW2I-O-154" value="&lt;b&gt;TRX_UNDO_XID_EXISTS(1B)&lt;/b&gt;&lt;br&gt;&lt;b&gt;是否包含XID信息&lt;/b&gt;" style="rounded=0;whiteSpace=wrap;html=1;strokeWidth=2;fontFamily=Comic Sans MS;fontSize=12;" vertex="1" parent="1">
          <mxGeometry x="690" y="1363" width="360" height="40" as="geometry" />
        </mxCell>
        <mxCell id="QwdAHC_jwGnzuMrW2I-O-155" value="&lt;b&gt;TRX_UNDO_LOG_START(2B)&lt;/b&gt;&lt;br&gt;&lt;b&gt;第一条undo日志的在页面中的偏移量&lt;/b&gt;" style="rounded=0;whiteSpace=wrap;html=1;strokeWidth=2;fontFamily=Comic Sans MS;fontSize=12;" vertex="1" parent="1">
          <mxGeometry x="690" y="1323" width="360" height="40" as="geometry" />
        </mxCell>
        <mxCell id="QwdAHC_jwGnzuMrW2I-O-156" value="&lt;b&gt;TRX_UNDO_NEXT_LOG(2B)&lt;/b&gt;&lt;br&gt;&lt;b&gt;下一组的undo日志在页面中开始的偏移量&lt;/b&gt;" style="rounded=0;whiteSpace=wrap;html=1;strokeWidth=2;fontFamily=Comic Sans MS;fontSize=12;" vertex="1" parent="1">
          <mxGeometry x="690" y="1483" width="360" height="40" as="geometry" />
        </mxCell>
        <mxCell id="QwdAHC_jwGnzuMrW2I-O-157" value="&lt;b&gt;TRX_UNDO_PREV_LOG(2B)&lt;/b&gt;&lt;br&gt;&lt;b&gt;上一组的undo日志在页面中开始的偏移量&lt;/b&gt;" style="rounded=0;whiteSpace=wrap;html=1;strokeWidth=2;fontFamily=Comic Sans MS;fontSize=12;" vertex="1" parent="1">
          <mxGeometry x="690" y="1523" width="360" height="40" as="geometry" />
        </mxCell>
        <mxCell id="QwdAHC_jwGnzuMrW2I-O-158" value="&lt;b&gt;TRX_UNDO_HISTORY_NODE(12B)&lt;br&gt;&lt;br&gt;&lt;/b&gt;" style="rounded=0;whiteSpace=wrap;html=1;strokeWidth=2;fontFamily=Comic Sans MS;fontSize=12;" vertex="1" parent="1">
          <mxGeometry x="690" y="1563" width="360" height="40" as="geometry" />
        </mxCell>
        <mxCell id="QwdAHC_jwGnzuMrW2I-O-159" value="" style="shape=curlyBracket;whiteSpace=wrap;html=1;rounded=1;flipH=1;labelPosition=right;verticalLabelPosition=middle;align=left;verticalAlign=middle;size=0.5;" vertex="1" parent="1">
          <mxGeometry x="1059.5" y="1223" width="30" height="220" as="geometry" />
        </mxCell>
        <mxCell id="QwdAHC_jwGnzuMrW2I-O-160" value="&lt;b&gt;File Header(38B)&lt;/b&gt;" style="rounded=0;whiteSpace=wrap;html=1;strokeWidth=2;fontFamily=Comic Sans MS;fontSize=12;fillColor=#ffe6cc;strokeColor=#d79b00;" vertex="1" parent="1">
          <mxGeometry x="1979.75" y="450" width="250" height="40" as="geometry" />
        </mxCell>
        <mxCell id="QwdAHC_jwGnzuMrW2I-O-161" value="&lt;b&gt;TRX_RSEG_MAX_SIZE(4B)&lt;/b&gt;" style="rounded=0;whiteSpace=wrap;html=1;strokeWidth=2;fontFamily=Comic Sans MS;fontSize=12;" vertex="1" parent="1">
          <mxGeometry x="1979.75" y="490" width="250" height="40" as="geometry" />
        </mxCell>
        <mxCell id="QwdAHC_jwGnzuMrW2I-O-162" value="Rollback Segment Header页面" style="text;html=1;strokeColor=none;fillColor=none;align=center;verticalAlign=middle;whiteSpace=wrap;rounded=0;fontStyle=1;fontColor=#FF0000;" vertex="1" parent="1">
          <mxGeometry x="1987.75" y="420" width="235" height="30" as="geometry" />
        </mxCell>
        <mxCell id="QwdAHC_jwGnzuMrW2I-O-163" value="&lt;b&gt;File Trailer(8B)&lt;/b&gt;" style="rounded=0;whiteSpace=wrap;html=1;strokeWidth=2;fontFamily=Comic Sans MS;fontSize=12;fillColor=#ffe6cc;strokeColor=#d79b00;" vertex="1" parent="1">
          <mxGeometry x="1980.25" y="730" width="250" height="40" as="geometry" />
        </mxCell>
        <mxCell id="QwdAHC_jwGnzuMrW2I-O-164" value="&lt;b&gt;UNUSE&lt;/b&gt;" style="rounded=0;whiteSpace=wrap;html=1;strokeWidth=2;fontFamily=Comic Sans MS;fontSize=12;" vertex="1" parent="1">
          <mxGeometry x="1980.25" y="690" width="250" height="40" as="geometry" />
        </mxCell>
        <mxCell id="QwdAHC_jwGnzuMrW2I-O-165" value="&lt;b&gt;TRX_RSEG_HISTORY_SIZE(4B)&lt;/b&gt;" style="rounded=0;whiteSpace=wrap;html=1;strokeWidth=2;fontFamily=Comic Sans MS;fontSize=12;" vertex="1" parent="1">
          <mxGeometry x="1979.75" y="530" width="250" height="40" as="geometry" />
        </mxCell>
        <mxCell id="QwdAHC_jwGnzuMrW2I-O-166" value="&lt;b&gt;TRX_RSEG_HISTORY(16B)&lt;/b&gt;" style="rounded=0;whiteSpace=wrap;html=1;strokeWidth=2;fontFamily=Comic Sans MS;fontSize=12;" vertex="1" parent="1">
          <mxGeometry x="1979.75" y="570" width="250" height="40" as="geometry" />
        </mxCell>
        <mxCell id="QwdAHC_jwGnzuMrW2I-O-167" value="&lt;b&gt;TRX_RSEG_FSEG_HEADER(10B)&lt;/b&gt;" style="rounded=0;whiteSpace=wrap;html=1;strokeWidth=2;fontFamily=Comic Sans MS;fontSize=12;" vertex="1" parent="1">
          <mxGeometry x="1979.75" y="610" width="250" height="40" as="geometry" />
        </mxCell>
        <mxCell id="QwdAHC_jwGnzuMrW2I-O-168" style="edgeStyle=orthogonalEdgeStyle;rounded=0;orthogonalLoop=1;jettySize=auto;html=1;exitX=0;exitY=0.5;exitDx=0;exitDy=0;" edge="1" parent="1" source="QwdAHC_jwGnzuMrW2I-O-170" target="QwdAHC_jwGnzuMrW2I-O-117">
          <mxGeometry relative="1" as="geometry" />
        </mxCell>
        <mxCell id="QwdAHC_jwGnzuMrW2I-O-169" value="&lt;b&gt;&lt;font style=&quot;font-size: 12px;&quot;&gt;各个undo页面链表的first undo page&lt;/font&gt;&lt;/b&gt;" style="edgeLabel;html=1;align=center;verticalAlign=middle;resizable=0;points=[];" vertex="1" connectable="0" parent="QwdAHC_jwGnzuMrW2I-O-168">
          <mxGeometry x="0.3028" y="-4" relative="1" as="geometry">
            <mxPoint as="offset" />
          </mxGeometry>
        </mxCell>
        <mxCell id="QwdAHC_jwGnzuMrW2I-O-170" value="&lt;b&gt;TRX_RSEG_UNDO_SLOTS(4096B)&lt;/b&gt;" style="rounded=0;whiteSpace=wrap;html=1;strokeWidth=2;fontFamily=Comic Sans MS;fontSize=12;" vertex="1" parent="1">
          <mxGeometry x="1980.25" y="650" width="250" height="40" as="geometry" />
        </mxCell>
        <mxCell id="QwdAHC_jwGnzuMrW2I-O-171" value="各个undo链表的first undo page页号集合（undo slot）,一个页面下有1024个" style="text;html=1;strokeColor=none;fillColor=none;align=left;verticalAlign=middle;whiteSpace=wrap;rounded=0;fontColor=#000099;" vertex="1" parent="1">
          <mxGeometry x="2240" y="660" width="300" height="30" as="geometry" />
        </mxCell>
        <mxCell id="QwdAHC_jwGnzuMrW2I-O-172" style="edgeStyle=orthogonalEdgeStyle;rounded=0;orthogonalLoop=1;jettySize=auto;html=1;entryX=1;entryY=0.5;entryDx=0;entryDy=0;exitX=0.5;exitY=1;exitDx=0;exitDy=0;curved=1;" edge="1" parent="1" source="QwdAHC_jwGnzuMrW2I-O-173" target="QwdAHC_jwGnzuMrW2I-O-160">
          <mxGeometry relative="1" as="geometry" />
        </mxCell>
        <mxCell id="QwdAHC_jwGnzuMrW2I-O-173" value="&lt;b&gt;系统表空间的第5号页面的某个区域&lt;br&gt;（128个Rollback Segment Header页面地址）&lt;/b&gt;" style="rounded=0;whiteSpace=wrap;html=1;strokeWidth=2;fontFamily=Comic Sans MS;fontSize=12;" vertex="1" parent="1">
          <mxGeometry x="2270" y="340" width="300" height="50" as="geometry" />
        </mxCell>
      </root>
    </mxGraphModel>
  </diagram>
</mxfile>
